# xmcd
#
# Track frame offsets: 
#        225
#        20633
#        37653
#        54285
#        78360
#        100268
#        120283
#        143980
#        163830
#
# Disc length: 2571 seconds
#
# Revision: 1
# Processed by: cddbd v1.5.2PL0 Copyright (c) Steve Scherf et al.
# Submitted via: ExactAudioCopy v0.95b4
#
DISCID=670a0809
DTITLE=Kitaro - Tunhuang
DYEAR=1985
DGENRE=New Age
TTITLE0=Lord Of The Wind
TTITLE1=Fata Morgana
TTITLE2=Sacred Journey I
TTITLE3=Lord Of The Sand
TTITLE4=Tunhuang
TTITLE5=Free Flight
TTITLE6=Mandala
TTITLE7=Tao
TTITLE8=Sacred Journey II
EXTD=YEAR: 1985
EXTT0=
EXTT1=
EXTT2=
EXTT3=
EXTT4=
EXTT5=
EXTT6=
EXTT7=
EXTT8=
PLAYORDER=
